# xmcd
#
# Track frame offsets:
#	187
#	25165
#	49580
#	65022
#	88970
#	118095
#	143115
#	164247
#	186412
#	202467
#	236927
#	268215
#
# Disc length: 3891 seconds
#
# Revision: 1
# Processed by: cddbd v1.4PL0 Copyright (c) Steve Scherf et al.
# Submitted via: EasyCDDAExtractor 5.0.7
#
DISCID=c90f310c
DTITLE=Various Artist - Xin lam nguoi tinh co don
DYEAR=1900
DGENRE=
TTITLE0=Elvis Phuong Khanh Ly - Tinh khuc cho em
TTITLE1=Thanh Tuyen - Bien man
TTITLE2=Juilie - Dem huyen dieu
TTITLE3=Le Thu - Cho nguoi tinh lo
TTITLE4=Elvis Phuong - Xin lam nguoi tinh co don
TTITLE5=Ngoc Minh - Sac hoa mau nho
TTITLE6=Thanh Tuyen - Tinh yeu tra lai trang sao
TTITLE7=Elvis Phuong - Bien khuc mua dong
TTITLE8=Khanh Ly - Anh den mau
TTITLE9=Hai Ly - Tinh
TTITLE10=Tuan Ngoc - Tien em
TTITLE11=Carol Kim - Neu mot ngay
EXTD=
EXTT0=
EXTT1=
EXTT2=
EXTT3=
EXTT4=
EXTT5=
EXTT6=
EXTT7=
EXTT8=
EXTT9=
EXTT10=
EXTT11=
PLAYORDER=
